<svg class="mb-1.5" width="20" height="13" viewBox="0 0 20 13" fill="none" xmlns="http://www.w3.org/2000/svg">
        <path d="M4.08664 4.75C4.56096 2.04276 6.92458 0 9.75 0C12.5754 0 14.939 2.04276 15.4134 4.75L15.5 4.75C17.7091 4.75 19.5 6.54086 19.5 8.75C19.5 10.9591 17.7091 12.75 15.5 12.75H4C1.79086 12.75 0 10.9591 0 8.75C0 6.54086 1.79086 4.75 4.00002 4.75L4.08664 4.75ZM9.75 1.5C7.48202 1.5 5.61629 3.28125 5.50523 5.53691C5.48557 5.93631 5.156 6.25004 4.75612 6.25002L4 6.25C2.61929 6.25 1.5 7.36929 1.5 8.75C1.5 10.1307 2.61929 11.25 4 11.25H15.5C16.8807 11.25 18 10.1307 18 8.75C18 7.36929 16.8807 6.25 15.5 6.25L14.7439 6.25002C14.344 6.25004 14.0144 5.93631 13.9948 5.53691C13.8837 3.28125 12.018 1.5 9.75 1.5Z" fill="url(#gradient5)"></path>
            <defs>
                <linearGradient id="gradient5" x1="1.73553e-08" y1="4.01464" x2="10.5175" y2="16.9801" gradientUnits="userSpaceOnUse">
                    <stop stop-color="var(--colors-primary-blue)"></stop>
                    <stop offset="1" stop-color="var(--colors-primary-purple)"></stop>
                </linearGradient>
            </defs>
        </svg>